<?xml version="1.0" encoding="iso-8859-1"?>
<!-- Generator: Adobe Illustrator 19.0.0, SVG Export Plug-In . SVG Version: 6.00 Build 0)  -->
<svg version="1.1" id="Layer_1" xmlns="http://www.w3.org/2000/svg" xmlns:xlink="http://www.w3.org/1999/xlink" x="0px" y="0px"
	 viewBox="0 0 512 512" style="enable-background:new 0 0 512 512;" xml:space="preserve">
<g transform="translate(1 1)">
	<path style="fill:#FFDD09;" d="M400.067,502.467H109.933c-56.32,0-102.4-46.08-102.4-102.4V109.933
		c0-56.32,46.08-102.4,102.4-102.4h290.133c56.32,0,102.4,46.08,102.4,102.4v290.133
		C502.467,456.387,456.387,502.467,400.067,502.467"/>
	<path style="fill:#FD9808;" d="M400.067,7.533h-25.6c56.32,0,102.4,46.08,102.4,102.4v290.133c0,56.32-46.08,102.4-102.4,102.4
		h25.6c56.32,0,102.4-46.08,102.4-102.4V109.933C502.467,53.613,456.387,7.533,400.067,7.533"/>
	<path style="fill:#FFFFFF;" d="M109.933,7.533h25.6c-56.32,0-102.4,46.08-102.4,102.4v290.133c0,56.32,46.08,102.4,102.4,102.4
		h-25.6c-56.32,0-102.4-46.08-102.4-102.4V109.933C7.533,53.613,53.613,7.533,109.933,7.533"/>
	<path d="M220.867,357.4c-0.853,0-1.707,0-2.56-0.853c-4.267-1.707-6.827-6.827-5.12-11.093l68.267-187.733
		c1.707-4.267,6.827-6.827,11.093-5.12c4.267,1.707,6.827,6.827,5.12,11.093L229.4,351.427
		C227.693,354.84,224.28,357.4,220.867,357.4z"/>
	<path d="M178.2,357.4c-18.773,0-34.133-15.36-34.133-34.133v-39.253l-23.04-23.04c-3.413-3.413-3.413-8.533,0-11.947l23.04-23.04
		v-39.253c0-18.773,15.36-34.133,34.133-34.133c5.12,0,8.533,3.413,8.533,8.533c0,5.12-3.413,8.533-8.533,8.533
		c-9.387,0-17.067,7.68-17.067,17.067V229.4c0,2.56-0.853,4.267-2.56,5.973L138.947,255l19.627,19.627
		c1.707,1.707,2.56,3.413,2.56,5.973v42.667c0,9.387,7.68,17.067,17.067,17.067c5.12,0,8.533,3.413,8.533,8.533
		C186.733,353.987,183.32,357.4,178.2,357.4z"/>
	<path d="M331.8,357.4c-5.12,0-8.533-3.413-8.533-8.533c0-5.12,3.413-8.533,8.533-8.533c9.387,0,17.067-7.68,17.067-17.067V280.6
		c0-2.56,0.853-4.267,2.56-5.973L371.053,255l-19.627-19.627c-1.707-1.707-2.56-3.413-2.56-5.973v-42.667
		c0-9.387-7.68-17.067-17.067-17.067c-5.12,0-8.533-3.413-8.533-8.533c0-5.12,3.413-8.533,8.533-8.533
		c18.773,0,34.133,15.36,34.133,34.133v39.253l23.04,23.04c1.707,1.707,2.56,3.413,2.56,5.973c0,2.56-0.853,4.267-2.56,5.973
		l-23.04,23.04v39.253C365.933,342.04,350.573,357.4,331.8,357.4z"/>
	<path d="M400.067,511H109.933C48.493,511-1,461.507-1,400.067V109.933C-1,48.493,48.493-1,109.933-1h290.133
		C461.507-1,511,48.493,511,109.933v290.133C511,461.507,461.507,511,400.067,511z M109.933,16.067
		c-52.053,0-93.867,41.813-93.867,93.867v290.133c0,52.053,41.813,93.867,93.867,93.867h290.133
		c52.053,0,93.867-41.813,93.867-93.867V109.933c0-52.053-41.813-93.867-93.867-93.867H109.933z"/>
</g>
<g>
</g>
<g>
</g>
<g>
</g>
<g>
</g>
<g>
</g>
<g>
</g>
<g>
</g>
<g>
</g>
<g>
</g>
<g>
</g>
<g>
</g>
<g>
</g>
<g>
</g>
<g>
</g>
<g>
</g>
</svg>
